<svg id="visual" viewBox="0 0 900 600" width="900" height="600" xmlns="http://www.w3.org/2000/svg" xmlns:xlink="http://www.w3.org/1999/xlink" version="1.1"><g stroke-width="1" stroke-linejoin="bevel"><path d="M439 312L465 378L520 265Z" fill="#19435d" stroke="#19435d"></path><path d="M520 265L488 238L439 312Z" fill="#15384f" stroke="#15384f"></path><path d="M598 408L617 307L520 265Z" fill="#297ea6" stroke="#297ea6"></path><path d="M520 265L572 174L488 238Z" fill="#205a7a" stroke="#205a7a"></path><path d="M465 378L598 408L520 265Z" fill="#19435d" stroke="#19435d"></path><path d="M439 312L386 438L465 378Z" fill="#297ea6" stroke="#297ea6"></path><path d="M465 378L476 503L598 408Z" fill="#297ea6" stroke="#297ea6"></path><path d="M617 307L572 174L520 265Z" fill="#205a7a" stroke="#205a7a"></path><path d="M419 87L376 211L488 238Z" fill="#205a7a" stroke="#205a7a"></path><path d="M488 238L376 211L439 312Z" fill="#297ea6" stroke="#297ea6"></path><path d="M439 312L296 398L386 438Z" fill="#112e42" stroke="#112e42"></path><path d="M386 438L476 503L465 378Z" fill="#297ea6" stroke="#297ea6"></path><path d="M572 174L535 111L488 238Z" fill="#19435d" stroke="#19435d"></path><path d="M281 282L296 398L439 312Z" fill="#277297" stroke="#277297"></path><path d="M386 438L418 534L476 503Z" fill="#246688" stroke="#246688"></path><path d="M284 499L418 534L386 438Z" fill="#112e42" stroke="#112e42"></path><path d="M376 211L281 282L439 312Z" fill="#15384f" stroke="#15384f"></path><path d="M476 503L616 520L598 408Z" fill="#00101c" stroke="#00101c"></path><path d="M735 427L727 305L617 307Z" fill="#15384f" stroke="#15384f"></path><path d="M568 600L616 520L476 503Z" fill="#00101c" stroke="#00101c"></path><path d="M735 427L617 307L598 408Z" fill="#1d4e6b" stroke="#1d4e6b"></path><path d="M715 176L631 133L572 174Z" fill="#112e42" stroke="#112e42"></path><path d="M572 174L631 133L535 111Z" fill="#297ea6" stroke="#297ea6"></path><path d="M715 176L572 174L617 307Z" fill="#19435d" stroke="#19435d"></path><path d="M376 211L303 191L281 282Z" fill="#15384f" stroke="#15384f"></path><path d="M315 87L303 191L376 211Z" fill="#00101c" stroke="#00101c"></path><path d="M535 111L419 87L488 238Z" fill="#205a7a" stroke="#205a7a"></path><path d="M700 491L735 427L598 408Z" fill="#1d4e6b" stroke="#1d4e6b"></path><path d="M616 520L700 491L598 408Z" fill="#205a7a" stroke="#205a7a"></path><path d="M727 305L715 176L617 307Z" fill="#246688" stroke="#246688"></path><path d="M281 282L231 331L296 398Z" fill="#15384f" stroke="#15384f"></path><path d="M296 398L284 499L386 438Z" fill="#277297" stroke="#277297"></path><path d="M233 221L231 331L281 282Z" fill="#205a7a" stroke="#205a7a"></path><path d="M418 534L494 600L476 503Z" fill="#00101c" stroke="#00101c"></path><path d="M616 520L717 600L700 491Z" fill="#277297" stroke="#277297"></path><path d="M715 176L686 121L631 133Z" fill="#205a7a" stroke="#205a7a"></path><path d="M612 0L539 0L535 111Z" fill="#00101c" stroke="#00101c"></path><path d="M535 111L437 0L419 87Z" fill="#205a7a" stroke="#205a7a"></path><path d="M222 391L284 499L296 398Z" fill="#246688" stroke="#246688"></path><path d="M418 534L429 600L494 600Z" fill="#1d4e6b" stroke="#1d4e6b"></path><path d="M727 305L767 231L715 176Z" fill="#19435d" stroke="#19435d"></path><path d="M815 0L704 0L686 121Z" fill="#1d4e6b" stroke="#1d4e6b"></path><path d="M799 264L767 231L727 305Z" fill="#112e42" stroke="#112e42"></path><path d="M494 600L568 600L476 503Z" fill="#00101c" stroke="#00101c"></path><path d="M305 600L429 600L418 534Z" fill="#205a7a" stroke="#205a7a"></path><path d="M231 331L222 391L296 398Z" fill="#1d4e6b" stroke="#1d4e6b"></path><path d="M170 113L233 221L303 191Z" fill="#246688" stroke="#246688"></path><path d="M303 191L233 221L281 282Z" fill="#00101c" stroke="#00101c"></path><path d="M103 394L176 479L222 391Z" fill="#205a7a" stroke="#205a7a"></path><path d="M419 87L315 87L376 211Z" fill="#205a7a" stroke="#205a7a"></path><path d="M823 383L799 264L727 305Z" fill="#205a7a" stroke="#205a7a"></path><path d="M838 124L686 121L715 176Z" fill="#246688" stroke="#246688"></path><path d="M735 427L823 383L727 305Z" fill="#19435d" stroke="#19435d"></path><path d="M816 518L823 383L735 427Z" fill="#112e42" stroke="#112e42"></path><path d="M612 0L535 111L631 133Z" fill="#081a28" stroke="#081a28"></path><path d="M419 87L303 0L315 87Z" fill="#081a28" stroke="#081a28"></path><path d="M539 0L437 0L535 111Z" fill="#297ea6" stroke="#297ea6"></path><path d="M284 499L305 600L418 534Z" fill="#277297" stroke="#277297"></path><path d="M178 600L305 600L284 499Z" fill="#297ea6" stroke="#297ea6"></path><path d="M686 121L612 0L631 133Z" fill="#19435d" stroke="#19435d"></path><path d="M704 0L612 0L686 121Z" fill="#081a28" stroke="#081a28"></path><path d="M568 600L717 600L616 520Z" fill="#0c2435" stroke="#0c2435"></path><path d="M700 491L816 518L735 427Z" fill="#19435d" stroke="#19435d"></path><path d="M103 394L222 391L231 331Z" fill="#246688" stroke="#246688"></path><path d="M222 391L176 479L284 499Z" fill="#19435d" stroke="#19435d"></path><path d="M717 600L816 518L700 491Z" fill="#15384f" stroke="#15384f"></path><path d="M437 0L303 0L419 87Z" fill="#19435d" stroke="#19435d"></path><path d="M315 87L170 113L303 191Z" fill="#112e42" stroke="#112e42"></path><path d="M838 124L715 176L767 231Z" fill="#0c2435" stroke="#0c2435"></path><path d="M900 172L838 124L767 231Z" fill="#0c2435" stroke="#0c2435"></path><path d="M900 172L767 231L799 264Z" fill="#297ea6" stroke="#297ea6"></path><path d="M900 291L799 264L823 383Z" fill="#19435d" stroke="#19435d"></path><path d="M223 0L170 113L315 87Z" fill="#112e42" stroke="#112e42"></path><path d="M61 335L103 394L231 331Z" fill="#0c2435" stroke="#0c2435"></path><path d="M900 412L900 291L823 383Z" fill="#205a7a" stroke="#205a7a"></path><path d="M61 335L231 331L233 221Z" fill="#15384f" stroke="#15384f"></path><path d="M816 518L900 412L823 383Z" fill="#112e42" stroke="#112e42"></path><path d="M170 113L124 167L233 221Z" fill="#00101c" stroke="#00101c"></path><path d="M717 600L816 600L816 518Z" fill="#277297" stroke="#277297"></path><path d="M816 518L900 534L900 412Z" fill="#00101c" stroke="#00101c"></path><path d="M176 479L178 600L284 499Z" fill="#246688" stroke="#246688"></path><path d="M102 524L178 600L176 479Z" fill="#19435d" stroke="#19435d"></path><path d="M900 291L900 172L799 264Z" fill="#205a7a" stroke="#205a7a"></path><path d="M838 124L815 0L686 121Z" fill="#246688" stroke="#246688"></path><path d="M303 0L223 0L315 87Z" fill="#081a28" stroke="#081a28"></path><path d="M170 113L71 131L124 167Z" fill="#15384f" stroke="#15384f"></path><path d="M124 167L61 335L233 221Z" fill="#277297" stroke="#277297"></path><path d="M103 394L102 524L176 479Z" fill="#277297" stroke="#277297"></path><path d="M0 490L102 524L103 394Z" fill="#246688" stroke="#246688"></path><path d="M900 172L900 121L838 124Z" fill="#112e42" stroke="#112e42"></path><path d="M816 600L900 534L816 518Z" fill="#00101c" stroke="#00101c"></path><path d="M900 0L815 0L838 124Z" fill="#1d4e6b" stroke="#1d4e6b"></path><path d="M102 524L130 600L178 600Z" fill="#277297" stroke="#277297"></path><path d="M114 0L71 131L170 113Z" fill="#297ea6" stroke="#297ea6"></path><path d="M0 202L0 307L61 335Z" fill="#1d4e6b" stroke="#1d4e6b"></path><path d="M816 600L900 600L900 534Z" fill="#112e42" stroke="#112e42"></path><path d="M0 202L61 335L124 167Z" fill="#1d4e6b" stroke="#1d4e6b"></path><path d="M61 335L0 426L103 394Z" fill="#205a7a" stroke="#205a7a"></path><path d="M102 524L0 600L130 600Z" fill="#277297" stroke="#277297"></path><path d="M223 0L114 0L170 113Z" fill="#1d4e6b" stroke="#1d4e6b"></path><path d="M71 131L0 202L124 167Z" fill="#277297" stroke="#277297"></path><path d="M0 307L0 426L61 335Z" fill="#112e42" stroke="#112e42"></path><path d="M900 121L900 0L838 124Z" fill="#1d4e6b" stroke="#1d4e6b"></path><path d="M0 138L0 202L71 131Z" fill="#081a28" stroke="#081a28"></path><path d="M0 426L0 490L103 394Z" fill="#1d4e6b" stroke="#1d4e6b"></path><path d="M0 0L0 138L71 131Z" fill="#15384f" stroke="#15384f"></path><path d="M0 490L0 600L102 524Z" fill="#1d4e6b" stroke="#1d4e6b"></path><path d="M114 0L0 0L71 131Z" fill="#081a28" stroke="#081a28"></path></g></svg>