<svg id="visual" viewBox="0 0 2160 1240" width="2160" height="1240" xmlns="http://www.w3.org/2000/svg" xmlns:xlink="http://www.w3.org/1999/xlink" version="1.1"><rect x="0" y="0" width="2160" height="1240" fill="#001220"></rect><g fill="#A7233A"><circle r="30" cx="1485" cy="478"></circle><circle r="2" cx="84" cy="334"></circle><circle r="12" cx="1641" cy="789"></circle><circle r="2" cx="345" cy="82"></circle><circle r="13" cx="283" cy="434"></circle><circle r="24" cx="1704" cy="1131"></circle><circle r="16" cx="1220" cy="840"></circle><circle r="12" cx="2035" cy="621"></circle><circle r="3" cx="1041" cy="1096"></circle><circle r="12" cx="1504" cy="542"></circle><circle r="17" cx="923" cy="408"></circle><circle r="10" cx="555" cy="438"></circle><circle r="21" cx="1073" cy="885"></circle><circle r="9" cx="783" cy="1144"></circle><circle r="10" cx="1678" cy="869"></circle><circle r="6" cx="323" cy="1035"></circle><circle r="27" cx="258" cy="1073"></circle><circle r="10" cx="1494" cy="848"></circle><circle r="23" cx="498" cy="757"></circle><circle r="19" cx="1721" cy="264"></circle><circle r="16" cx="451" cy="371"></circle><circle r="7" cx="840" cy="828"></circle><circle r="13" cx="901" cy="1096"></circle><circle r="28" cx="153" cy="1126"></circle><circle r="2" cx="712" cy="973"></circle><circle r="19" cx="816" cy="416"></circle><circle r="8" cx="1437" cy="60"></circle><circle r="19" cx="872" cy="601"></circle><circle r="14" cx="749" cy="246"></circle><circle r="7" cx="1164" cy="289"></circle><circle r="2" cx="1322" cy="907"></circle><circle r="2" cx="1923" cy="141"></circle><circle r="9" cx="1534" cy="1012"></circle><circle r="20" cx="1575" cy="354"></circle><circle r="16" cx="1904" cy="1000"></circle><circle r="3" cx="991" cy="103"></circle><circle r="21" cx="1869" cy="186"></circle><circle r="3" cx="921" cy="109"></circle><circle r="26" cx="1785" cy="255"></circle><circle r="23" cx="1952" cy="751"></circle><circle r="28" cx="1243" cy="561"></circle><circle r="12" cx="1381" cy="558"></circle><circle r="11" cx="731" cy="5"></circle><circle r="9" cx="281" cy="304"></circle><circle r="6" cx="329" cy="533"></circle><circle r="25" cx="1528" cy="1135"></circle><circle r="17" cx="2037" cy="1019"></circle><circle r="3" cx="2132" cy="190"></circle><circle r="7" cx="663" cy="1118"></circle><circle r="28" cx="229" cy="1234"></circle><circle r="18" cx="835" cy="724"></circle><circle r="16" cx="748" cy="392"></circle><circle r="9" cx="1438" cy="430"></circle><circle r="8" cx="301" cy="686"></circle><circle r="22" cx="731" cy="666"></circle><circle r="26" cx="354" cy="901"></circle><circle r="4" cx="1541" cy="671"></circle><circle r="27" cx="24" cy="1077"></circle><circle r="28" cx="600" cy="769"></circle><circle r="6" cx="1928" cy="882"></circle><circle r="13" cx="235" cy="667"></circle><circle r="27" cx="82" cy="134"></circle><circle r="9" cx="2039" cy="50"></circle><circle r="23" cx="1812" cy="311"></circle><circle r="17" cx="476" cy="1101"></circle><circle r="8" cx="1909" cy="1115"></circle><circle r="11" cx="2111" cy="685"></circle><circle r="15" cx="1279" cy="704"></circle><circle r="8" cx="6" cy="95"></circle></g></svg>