<svg id="visual" viewBox="0 0 900 600" width="900" height="600" xmlns="http://www.w3.org/2000/svg" xmlns:xlink="http://www.w3.org/1999/xlink" version="1.1"><rect width="900" height="600" fill="#001829"></rect><g><g transform="translate(721 555)"><path d="M0 -109.1L94.5 -54.6L94.5 54.6L0 109.1L-94.5 54.6L-94.5 -54.6Z" fill="#297EA6"></path></g><g transform="translate(707 139)"><path d="M0 -99L85.7 -49.5L85.7 49.5L0 99L-85.7 49.5L-85.7 -49.5Z" fill="#297EA6"></path></g><g transform="translate(496 34)"><path d="M0 -107L92.7 -53.5L92.7 53.5L0 107L-92.7 53.5L-92.7 -53.5Z" fill="#297EA6"></path></g><g transform="translate(202 207)"><path d="M0 -95L82.3 -47.5L82.3 47.5L0 95L-82.3 47.5L-82.3 -47.5Z" fill="#297EA6"></path></g><g transform="translate(75 6)"><path d="M0 -108L93.5 -54L93.5 54L0 108L-93.5 54L-93.5 -54Z" fill="#297EA6"></path></g><g transform="translate(352 507)"><path d="M0 -95L82.3 -47.5L82.3 47.5L0 95L-82.3 47.5L-82.3 -47.5Z" fill="#297EA6"></path></g></g></svg>